<mxfile host="app.diagrams.net" modified="2023-04-09T00:57:50.255Z" agent="Mozilla/5.0 (Macintosh; Intel Mac OS X 10.15; rv:109.0) Gecko/20100101 Firefox/111.0" version="21.1.5" etag="ozXBTedFlvzvwSzECLxx" type="github">
  <diagram name="第 1 页" id="VAUSpr0xMT_1Gf3X5b7z">
    <mxGraphModel>
      <root>
        <mxCell id="0" />
        <mxCell id="1" parent="0" />
      </root>
    </mxGraphModel>
  </diagram>
</mxfile>
